<svg id="Group_385" data-name="Group 385" xmlns="http://www.w3.org/2000/svg" width="23.64" height="14.308" viewBox="0 0 23.64 14.308">
  <path id="Path_107" data-name="Path 107" d="M213.6,366.06h9.683l-5.366-6.094a2.8,2.8,0,0,1,2.452.386c2.319,1.816,4.7,3.549,7.093,5.272a2.594,2.594,0,0,0,1.323.419c1.643.086,3.3.019,4.934.167a4.771,4.771,0,0,1,3.081,1.612c.629.685.486,1.268-.4,1.574a4.85,4.85,0,0,1-1.424.294c-4.269.116-8.538.225-12.807.293A10.791,10.791,0,0,1,213.6,366.06Z" transform="translate(-213.547 -359.862)" fill="#ec3137"/>
  <path id="Path_108" data-name="Path 108" d="M246.5,440.317c1.557-1.039,3.111-2.085,4.677-3.109a1.165,1.165,0,0,1,.6-.122c1.345-.01,2.691-.005,4.145-.005-.9.395-1.743.767-2.587,1.127-1.407.6-2.8,1.234-4.233,1.772a22.982,22.982,0,0,1-2.5.646Z" transform="translate(-241.862 -426.318)" fill="#ec3137"/>
  <path id="Path_109" data-name="Path 109" d="M216.352,381.591h-3.13v-3.117a.864.864,0,0,1,1.1.415C214.945,379.773,215.618,380.619,216.352,381.591Z" transform="translate(-213.222 -375.824)" fill="#ec3137"/>
</svg>
