<svg xmlns="http://www.w3.org/2000/svg" width="23.693" height="27.708" viewBox="0 0 23.693 27.708">
  <g id="Group_390" data-name="Group 390" transform="translate(-159.995 -259.117)">
    <path id="Path_137" data-name="Path 137" d="M172.9,413.915c-.2-.066-.4-.12-.588-.194-.509-.2-1.014-.409-1.522-.612a.183.183,0,0,0-.122-.006q-.368.144-.731.3a.2.2,0,0,0-.1.1c-.229.561-.45,1.125-.682,1.685-.157.38-.163.378-.572.378-.477,0-.955,0-1.432,0-.117,0-.169-.085-.207-.168-.281-.624-.556-1.252-.837-1.876a.247.247,0,0,0-.113-.117c-.238-.1-.479-.2-.72-.3a.175.175,0,0,0-.119,0c-.584.246-1.166.5-1.75.741a1.792,1.792,0,0,1-.259.08.218.218,0,0,1-.223-.068q-.575-.571-1.16-1.132a.214.214,0,0,1-.043-.249c.073-.22.147-.441.235-.655.178-.437.365-.869.545-1.3a.191.191,0,0,0,0-.13c-.089-.227-.181-.453-.282-.676a.259.259,0,0,0-.128-.123c-.542-.213-1.087-.416-1.629-.629a2.3,2.3,0,0,1-.378-.192.211.211,0,0,1-.084-.152c-.006-.549,0-1.1-.005-1.646a.18.18,0,0,1,.109-.179c.284-.134.566-.274.856-.4.383-.164.773-.312,1.159-.472a.194.194,0,0,0,.09-.1c.1-.22.192-.44.276-.665a.272.272,0,0,0-.006-.186c-.218-.5-.445-.991-.662-1.489a3.054,3.054,0,0,1-.157-.481.208.208,0,0,1,.055-.165c.384-.385.776-.763,1.162-1.146a.238.238,0,0,1,.27-.052c.323.114.647.224.966.347.334.129.662.274,1,.4a.309.309,0,0,0,.2,0q.333-.12.657-.265a.275.275,0,0,0,.129-.134c.248-.6.489-1.194.733-1.791.012-.029.032-.054.045-.083a.28.28,0,0,1,.3-.176c.509.01,1.018.009,1.527,0a.263.263,0,0,1,.274.157c.138.287.281.572.41.863.154.349.295.7.445,1.056a.178.178,0,0,0,.085.086c.232.1.463.2.7.284a.32.32,0,0,0,.21-.015c.577-.237,1.151-.481,1.726-.722.036-.015.075-.025.111-.039a.339.339,0,0,1,.41.1c.354.364.723.712,1.089,1.065a.214.214,0,0,1,.049.24c-.063.195-.124.391-.2.58-.192.47-.394.935-.588,1.4a.174.174,0,0,0,0,.12q.145.355.3.706a.187.187,0,0,0,.092.089c.614.244,1.229.484,1.844.726.026.01.049.026.075.035a.3.3,0,0,1,.206.319c-.005.521,0,1.042-.007,1.563a.275.275,0,0,1-.144.179c-.241.125-.487.24-.738.345-.41.172-.825.333-1.237.5a.161.161,0,0,0-.079.075c-.107.241-.21.484-.31.729a.17.17,0,0,0,.008.119c.235.533.475,1.064.709,1.6a2.012,2.012,0,0,1,.124.381.226.226,0,0,1-.046.179c-.335.339-.678.671-1.018,1.005-.056.055-.111.112-.171.162A.951.951,0,0,1,172.9,413.915Zm-5.012-9.2a3.042,3.042,0,0,0-2.09.86,2.955,2.955,0,0,0-.353,3.973,3.011,3.011,0,0,0,3.078,1.208,3.027,3.027,0,0,0,1.659-5.138A3.121,3.121,0,0,0,167.883,404.717Z" transform="translate(0 -128.744)" fill="#ec3137"/>
    <path id="Path_138" data-name="Path 138" d="M216.576,260.479c.145.045.279.079.407.128q.632.246,1.26.5a.285.285,0,0,0,.247,0c.164-.076.336-.135.5-.21a.211.211,0,0,0,.092-.107c.182-.444.36-.89.54-1.336,0-.007,0-.015.008-.022.181-.365.147-.319.479-.319.375,0,.75,0,1.125,0a.242.242,0,0,1,.251.153c.119.253.241.5.354.76s.219.523.332.783a.179.179,0,0,0,.083.087c.173.075.351.139.524.215a.227.227,0,0,0,.2,0c.466-.2.935-.4,1.4-.594.029-.012.06-.019.089-.031a.282.282,0,0,1,.348.071c.284.295.582.576.881.856a.258.258,0,0,1,.056.321c-.189.471-.374.944-.572,1.412a.381.381,0,0,0,0,.367,1.4,1.4,0,0,1,.133.315c.041.152.151.2.281.248.485.186.965.384,1.447.577a.223.223,0,0,1,.148.239c-.005.4-.01.805,0,1.208a.286.286,0,0,1-.188.3c-.288.127-.575.256-.865.378-.225.095-.454.178-.678.273a.217.217,0,0,0-.1.1c-.064.135-.108.28-.18.411a.36.36,0,0,0,0,.355q.3.66.587,1.327a.314.314,0,0,1-.056.4c-.3.277-.583.563-.868.851a.257.257,0,0,1-.307.07c-.4-.153-.807-.291-1.2-.456a.813.813,0,0,0-.913,0,.529.529,0,0,0-.322.346c-.161.418-.34.83-.506,1.247a.369.369,0,0,1-.407.273c-.389-.02-.78-.009-1.171,0a.232.232,0,0,1-.239-.135c-.109-.227-.22-.453-.322-.683-.129-.291-.248-.586-.376-.877a.2.2,0,0,0-.093-.095c-.177-.077-.356-.15-.537-.216a.232.232,0,0,0-.153,0c-.488.2-.974.4-1.458.612a.348.348,0,0,1-.45-.089c-.273-.293-.568-.566-.857-.845a.181.181,0,0,1-.057-.211c.113-.3.221-.606.339-.906.094-.238.2-.47.3-.707a.194.194,0,0,0,0-.131c-.072-.183-.148-.365-.231-.543a.194.194,0,0,0-.1-.084c-.45-.177-.9-.35-1.353-.524l-.055-.021a.423.423,0,0,1-.32-.487,9.418,9.418,0,0,0,0-1.053.279.279,0,0,1,.183-.3c.292-.129.583-.258.877-.382.221-.093.447-.176.667-.27a.219.219,0,0,0,.1-.1c.066-.138.117-.285.187-.421a.351.351,0,0,0,0-.341c-.205-.447-.4-.9-.592-1.351a.32.32,0,0,1,.089-.416c.3-.274.589-.568.884-.852A.693.693,0,0,1,216.576,260.479Zm4.062,2.591a2.478,2.478,0,1,0,2.526,2.457A2.51,2.51,0,0,0,220.639,263.07Z" transform="translate(-49.421 0)" fill="#ec3137"/>
    <path id="Path_139" data-name="Path 139" d="M335.289,385.856H334.7a.188.188,0,0,1-.187-.135q-.168-.416-.339-.831c-.04-.1.022-.161.074-.221.122-.139.251-.273.381-.4s.27-.254.4-.386a.235.235,0,0,0,.051-.122.589.589,0,0,0-.253-.628,5.011,5.011,0,0,1-.549-.535.259.259,0,0,1-.059-.329c.123-.255.227-.52.345-.777a.169.169,0,0,1,.109-.087c.18-.022.361-.037.541-.044a4.66,4.66,0,0,1,.544,0,.431.431,0,0,0,.339-.141.509.509,0,0,0,.184-.47c-.021-.29,0-.583.007-.875a.223.223,0,0,1,.173-.231c.252-.088.5-.2.742-.307a.228.228,0,0,1,.28.041c.254.241.51.481.76.727a.331.331,0,0,0,.215.091.605.605,0,0,0,.585-.257,7.326,7.326,0,0,1,.56-.558.266.266,0,0,1,.33-.063c.247.112.5.212.753.309a.181.181,0,0,1,.133.172c.01.185.022.37.024.555s-.009.379,0,.568a.25.25,0,0,0,.063.151c.255.273.257.265.625.247.26-.013.521-.007.781-.007a.243.243,0,0,1,.258.178c.091.251.2.5.306.743a.215.215,0,0,1-.043.26c-.257.261-.516.521-.768.786a.372.372,0,0,0-.076.171.557.557,0,0,0,.248.594,8.147,8.147,0,0,1,.588.581.21.21,0,0,1,.036.268q-.172.369-.325.747a.2.2,0,0,1-.185.152c-.2.01-.393.022-.59.029a1.591,1.591,0,0,1-.366,0c-.289-.058-.422.155-.585.315-.024.023-.018.082-.018.124q0,.485,0,.971a.291.291,0,0,1-.219.327c-.246.08-.482.192-.721.294a.228.228,0,0,1-.271-.046c-.256-.245-.511-.492-.771-.733a.329.329,0,0,0-.16-.072.606.606,0,0,0-.631.252,6.052,6.052,0,0,1-.552.549.265.265,0,0,1-.329.065c-.247-.112-.5-.208-.753-.308a.191.191,0,0,1-.139-.184c-.005-.37-.007-.741-.016-1.111a.519.519,0,0,0-.062-.162s-.008,0-.01-.007c-.16-.264-.414-.255-.673-.232-.063.006-.126,0-.189,0Zm3.212-.607a1.715,1.715,0,0,0,1.718-1.673,1.649,1.649,0,0,0-1.651-1.653,1.721,1.721,0,0,0-1.727,1.68A1.648,1.648,0,0,0,338.5,385.25Z" transform="translate(-159.209 -109.847)" fill="#ec3137"/>
  </g>
</svg>
