<svg xmlns="http://www.w3.org/2000/svg" width="37.511" height="23.636" viewBox="0 0 37.511 23.636">
  <g id="Group_351" data-name="Group 351" transform="translate(-620.978 199.396)">
    <path id="Path_122" data-name="Path 122" d="M658.49,85.371c-.389.656-.757,1.281-1.129,1.9q-2.408,4.037-4.813,8.076a.477.477,0,0,1-.474.276q-13.648-.011-27.3,0a.372.372,0,0,1-.419-.286q-1.6-4.193-3.222-8.379c-.053-.138-.1-.279-.16-.457.156-.008.291-.021.426-.022,2.2-.01,4.408-.025,6.613-.027q11.514-.01,23.028-.009a.511.511,0,0,0,.441-.2c.224-.271.461-.532.7-.786a.369.369,0,0,1,.236-.112q2.966-.009,5.933,0A1.044,1.044,0,0,1,658.49,85.371Zm-8.57,3.443a.812.812,0,0,0-.74.77.787.787,0,0,0,.763.744.757.757,0,1,0-.022-1.514Zm-3.74.006a.767.767,0,0,0-.728.743.817.817,0,0,0,.77.767.856.856,0,0,0,.763-.757A.8.8,0,0,0,646.18,88.821Z" transform="translate(0 -271.387)" fill="#ec3137"/>
    <path id="Path_123" data-name="Path 123" d="M657.816,13.066v-4h10.089v4Z" transform="translate(-35.11 -198.681)" fill="#ec3137"/>
    <path id="Path_124" data-name="Path 124" d="M728.153-84.229v-3.707h3.5v3.707Z" transform="translate(-102.148 -106.232)" fill="#ec3137"/>
    <path id="Path_125" data-name="Path 125" d="M982.935,30.661V28.293c0-.227,0-.453,0-.68,0-.115.032-.171.159-.171,1.164,0,2.328,0,3.492.005a.343.343,0,0,1,.08.025v3.188Z" transform="translate(-344.978 -216.199)" fill="#ec3137"/>
    <path id="Path_126" data-name="Path 126" d="M1176.274,27.846v3.195h-3.721V27.846Z" transform="translate(-525.703 -216.583)" fill="#ec3137"/>
    <path id="Path_127" data-name="Path 127" d="M986.641-50.739v3.2h-3.714a1.85,1.85,0,0,1-.019-.185c0-.938,0-1.875,0-2.813,0-.154.032-.222.205-.221,1.125.007,2.25,0,3.375,0A1.569,1.569,0,0,1,986.641-50.739Z" transform="translate(-344.949 -141.664)" fill="#ec3137"/>
    <path id="Path_128" data-name="Path 128" d="M1176.278-47.111h-3.712v-3.2h3.712Z" transform="translate(-525.715 -142.09)" fill="#ec3137"/>
    <path id="Path_129" data-name="Path 129" d="M1082.437-47.224H1078.8v-3.208h3.634Z" transform="translate(-436.35 -141.977)" fill="#ec3137"/>
    <path id="Path_130" data-name="Path 130" d="M1082.391,27.885V31.08h-3.646V27.885Z" transform="translate(-436.295 -216.62)" fill="#ec3137"/>
    <path id="Path_131" data-name="Path 131" d="M893.106-47.025h-3.629v-3.2h3.629Z" transform="translate(-255.905 -142.176)" fill="#ec3137"/>
    <path id="Path_132" data-name="Path 132" d="M892.632,27.418v3.208H889a1.359,1.359,0,0,1-.022-.175c0-.945,0-1.89,0-2.835,0-.165.051-.213.214-.212,1.093.006,2.186,0,3.279,0C892.513,27.407,892.559,27.413,892.632,27.418Z" transform="translate(-255.426 -216.161)" fill="#ec3137"/>
    <path id="Path_133" data-name="Path 133" d="M729.179-199.4l.909.046c.006.1.015.194.016.286.009.953.024,1.905.019,2.858,0,.21.073.284.266.317a8.042,8.042,0,0,1,.8.182.242.242,0,0,1,.154.152c.031.223.035.449.05.694h-3.524a3.352,3.352,0,0,1,.012-.614.4.4,0,0,1,.246-.233,7.06,7.06,0,0,1,.863-.208c.159-.03.2-.105.194-.254-.005-.976,0-1.952,0-2.928Z" transform="translate(-101.866)" fill="#ec3137"/>
  </g>
</svg>
