<svg xmlns="http://www.w3.org/2000/svg" width="64.873" height="96.047" viewBox="0 0 64.873 96.047">
  <path id="Path_149" data-name="Path 149" d="M187.374,212.129c-4.165,2.512-8.609,2.473-13.293,1.819.255-.52.481-.97.7-1.424a20.892,20.892,0,0,0,1.9-9.334c-.056-4.779-.352-9.556-.564-14.333-.207-4.657-.531-9.322.642-13.91,1.034-4.044,3.271-7.088,7.3-8.632a1.933,1.933,0,0,0,.932-.974c.515-1.178.926-2.4,1.4-3.659l6.51,8.987.34-.239c-1.117-2.127-2.2-4.274-3.369-6.37a1.977,1.977,0,0,1,.069-2.219c1.261-2.167,2.44-4.382,3.765-6.786l4.39,11.856.315-.113-3.258-11.432,3.326,2.223,2.732-2.308.221.1-2.833,11.184.241.077,4.016-11.993c1.387,2.406,2.7,4.622,3.929,6.881a1.569,1.569,0,0,1-.159,1.221c-1.508,2.887-3.059,5.752-4.615,8.656,3.231-2.873,5.144-6.662,7.289-10.514.458,1,.864,1.872,1.251,2.748,1.065,2.406,2.107,4.822,3.2,7.216a1.99,1.99,0,0,0,.882,1.049c3.713,1.273,4.944,4.179,5.17,7.737.262,4.129-.656,8.139-1.307,12.176-.593,3.676-1.244,7.349-1.643,11.048-.421,3.9-.081,7.7,2.844,10.9-4.421.809-8.644,1.065-12.708-1.206a2.611,2.611,0,0,0,.956,2.889,11.724,11.724,0,0,0,3.394,1.779c3.334,1,6.722,1.814,10.089,2.7,5.42,1.422,8.168,4.967,8.169,10.553,0,4.987-.023,9.975.021,14.962a1.236,1.236,0,0,1-1.133,1.46,127.285,127.285,0,0,1-44.175,3.1c-6.225-.652-12.368-2.083-18.55-3.142-.779-.134-1.021-.492-1.015-1.3.04-5.149.01-10.3.024-15.448a9.875,9.875,0,0,1,7.7-9.936c3.4-.907,6.827-1.739,10.211-2.714a12.627,12.627,0,0,0,3.386-1.56A3.333,3.333,0,0,0,187.374,212.129Zm-5.166-24.761a8.344,8.344,0,0,1-.256,1.407,9.935,9.935,0,0,1-.661,1.147c-.774,1.45-.553,3.636.714,4.292,1.182.613,1.352,1.551,1.6,2.6.284,1.18.633,2.344.933,3.52,1.407,5.516,5.385,8.462,10.408,10.3a5.45,5.45,0,0,0,2.751.207c4.365-.824,8.114-2.832,10.261-6.829a77.312,77.312,0,0,0,3.293-8.317,2.484,2.484,0,0,1,.751-1.116,3.216,3.216,0,0,0,1.217-4.252c-.842-1.352-.577-2.587-.444-3.929a19.893,19.893,0,0,0,.091-2.545,1.488,1.488,0,0,0-.391-.936c-.972-.954-2-1.857-3.1-2.866-7.439,3.794-15.117,3.808-22.92.4a22.152,22.152,0,0,0,5.158,2.639,43.329,43.329,0,0,0,5.846.993A43.438,43.438,0,0,1,182.208,187.368Zm4.222,30.413a18.9,18.9,0,0,0,6.672,6.34,7.369,7.369,0,0,0,5.969.9c3.867-1.237,6.551-3.98,8.95-7.3-3.288-1.781-3.062-4.85-2.96-8.132-5.325,3.79-10.473,4.251-15.768.026C189.365,212.96,189.627,216,186.429,217.781ZM196.935,246.8c.242-.665.382-1.027.505-1.395q2.841-8.515,5.681-17.032c.445-1.332.76-1.459,2.043-.869,1.363.628,2.719,1.268,4.274,1.994l-.9-8.833c-7.679,8.728-15.242,8.131-22.8-.149l-1.09,9.737c1.524-.806,2.8-1.481,4.083-2.16,1.854-.983,1.989-.931,2.6,1.019q2.331,7.407,4.662,14.813C196.263,244.79,196.557,245.65,196.935,246.8Zm25.14-8.442-.044-.5c-.373-.033-.747-.063-1.119-.1-1.57-.152-3.223.418-4.705-.574a.882.882,0,0,0-.812.028c-1.2.9-2.568.451-3.864.538-.719.048-1.443.009-2.165.009l-.067.487c.333.129.659.282,1,.382,1.688.494,3.374,1,5.078,1.435a2.539,2.539,0,0,0,1.271-.147c.717-.218,1.4-.564,2.117-.765C219.858,238.84,220.971,238.615,222.075,238.356Zm-30.023-61.479-.1.508a9.5,9.5,0,0,0,1.018.366c.826.2,1.689.284,2.488.558,1.891.649,3.7,1.127,5.658.044a13.131,13.131,0,0,1,3.055-.743c.22-.056.39-.3.583-.465a7.928,7.928,0,0,0-2.792-.254c-1.239.109-2.388-.608-3.467-.573-1.151.037-2.326.676-3.6.574C193.951,176.817,193,176.877,192.052,176.877Z" transform="translate(-164.736 -154.644)" fill="#fff"/>
</svg>
