<svg xmlns="http://www.w3.org/2000/svg" width="24.859" height="19.335" viewBox="0 0 24.859 19.335">
  <g id="_45642" data-name="45642" transform="translate(0 -42.304)">
    <g id="Group_354" data-name="Group 354" transform="translate(0 42.304)">
      <path id="Path_134" data-name="Path 134" d="M23.221,45.675H17.369V43.147a.843.843,0,0,0-.842-.843H8.614a.842.842,0,0,0-.843.843v2.528H1.591C.608,45.675,0,46.19,0,46.939v1.5H24.859v-1.38A1.447,1.447,0,0,0,23.221,45.675Zm-7.538,0H9.457V43.989h6.226Z" transform="translate(0 -42.304)" fill="#ec3137"/>
      <path id="Path_135" data-name="Path 135" d="M1.43,161.046a1.01,1.01,0,0,0,1.123,1.123H24.977a1.1,1.1,0,0,0,1.124-1.123V149.857H1.429v11.189h0Zm12.336-9.422a4.389,4.389,0,1,1-4.389,4.389A4.389,4.389,0,0,1,13.765,151.624Z" transform="translate(-1.336 -142.834)" fill="#ec3137"/>
      <path id="Path_136" data-name="Path 136" d="M148.2,205.8h1.881V203.86h1.938v-1.883h-1.938v-1.938H148.2v1.938h-1.939v1.883H148.2Z" transform="translate(-136.706 -189.74)" fill="#ec3137"/>
    </g>
  </g>
</svg>
