<svg xmlns="http://www.w3.org/2000/svg" width="61.518" height="61.336" viewBox="0 0 61.518 61.336">
  <path id="Diploma" d="M48.321,32.249a20.894,20.894,0,0,1-5.564-1.623q8.194-7.2,17.044-13.608l.383-.268.23-.421A11.189,11.189,0,0,0,57.486,2.952,11.159,11.159,0,0,0,44.249,1.513l-.482.509A210.313,210.313,0,0,1,24.986,24.6,192.174,192.174,0,0,1,1.957,42.168l-1.508.949V44A17.335,17.335,0,0,0,3.128,57.983a10.83,10.83,0,0,0,8.445,3.31,7.642,7.642,0,0,0,6.8-3.452c.938-1.179,7.9-9.98,15.326-18.016a20.371,20.371,0,0,1,2.273,6.027,24.07,24.07,0,0,1-1.527,11.779L40.9,49.813l5.089,3.827a46.387,46.387,0,0,0-2.235-12.766,20.438,20.438,0,0,0-3.5-4.646,22.907,22.907,0,0,0,5.25,3.345,48.084,48.084,0,0,0,11.771,2.572L53.64,37.3l7.653-6.62a34.371,34.371,0,0,1-10.627,1.649q-1.24,0-2.457-.084ZM46.6,4.582a7.232,7.232,0,0,1,3.222-.742A7.318,7.318,0,0,1,54.83,5.814,7.37,7.37,0,0,1,57.107,14.2,182.461,182.461,0,0,0,41.242,26.857a7.665,7.665,0,0,0-2.556-4.967,6.107,6.107,0,0,0-4.745-1.424Q40.629,12.817,46.6,4.582ZM10.4,45.26a1.753,1.753,0,0,1,1-.314l.153.008h.26a4.324,4.324,0,0,1,1.764,1L10.246,48.7a4.9,4.9,0,0,1-.455-2.74,1.278,1.278,0,0,1,.6-.7Zm4.975,10.294a3.827,3.827,0,0,1-3.846,1.91A7.087,7.087,0,0,1,5.845,55.4a13.133,13.133,0,0,1-2.231-7.355,13.407,13.407,0,0,1,.295-2.793L6.61,43.5a5.082,5.082,0,0,0-.762,1.841A11.423,11.423,0,0,0,7.9,52.833l1.355,1.684,6.505-5.357a9.169,9.169,0,0,1-.406,6.448Zm3.291-9.375A10.81,10.81,0,0,0,12.771,41.3a4.2,4.2,0,0,0-.727-.061,6.572,6.572,0,0,0-.677.038,5.97,5.97,0,0,0-1.339,0A172.117,172.117,0,0,0,25.288,29.6a9.005,9.005,0,0,1,4.328,2.04,6.7,6.7,0,0,1,1.837,4.626l-.008.36q-6.022,6.461-11.48,13.416A10.523,10.523,0,0,0,18.6,46.128Z" transform="translate(0.023 0.024)" fill="#ec3137"/>
</svg>
