<svg xmlns="http://www.w3.org/2000/svg" width="23.038" height="23.038" viewBox="0 0 23.038 23.038">
  <g id="Drama" transform="translate(0 -0.009)">
    <g id="Glyph" transform="translate(0 0.009)">
      <path id="Path_110" data-name="Path 110" d="M234.034,189.09l-1.747-6.981a1.08,1.08,0,0,0-1.84-.471,8.761,8.761,0,0,1-4.1,1.953,14.527,14.527,0,0,1-2.139.4.713.713,0,0,0-.594.436,5.275,5.275,0,0,1-2.24,2.42.721.721,0,0,0-.323.789l1.107,4.424c.823,3.288,6.943,4.078,7.2,4.11a.359.359,0,0,0,.251-.063C229.83,195.957,234.857,192.377,234.034,189.09Zm-7.208-3.342a.36.36,0,0,1,.445.247l.72,2.52a.36.36,0,1,1-.692.2l-.72-2.52A.36.36,0,0,1,226.827,185.748Zm-2.5,3.5a2.664,2.664,0,0,1-1.683-1.25.36.36,0,0,1,.052-.433h0l0,0,.008-.008a2.107,2.107,0,0,1,3.6.441.36.36,0,0,1-.052.433A2.545,2.545,0,0,1,224.326,189.245Zm6.092,2.975c-.263.108-1.186-.582-2.211-.166a2.928,2.928,0,0,0-1.148.945.363.363,0,0,1-.619-.151c-.651-2.6,1.473-2.962,1.484-2.973,1.389-.344,2.346.486,2.707,1.924a.362.362,0,0,1-.212.42Zm.416-4.62a2.471,2.471,0,0,1-2.056.16.36.36,0,0,1-.245-.351,2.035,2.035,0,0,1,2.917-2.035.361.361,0,0,1,.245.351,2.588,2.588,0,0,1-.86,1.875Z" transform="translate(-211.087 -173.135)" fill="#ec3137"/>
      <path id="Path_111" data-name="Path 111" d="M315.1,107.928l-.944-.473-.944.473a.36.36,0,0,1-.515-.386l.176-.978-.75-.7a.36.36,0,0,1,.2-.62l1.051-.145.467-.9a.36.36,0,0,1,.639,0l.467.9,1.051.145a.36.36,0,0,1,.2.62l-.75.7.176.978a.36.36,0,0,1-.515.386Z" transform="translate(-297.968 -99.327)" fill="#ec3137"/>
      <path id="Path_112" data-name="Path 112" d="M385.951,5.659l-.919-1.3-1.6.029a.36.36,0,0,1-.295-.576l.968-1.293L383.594,1a.36.36,0,0,1,.455-.456l1.518.508,1.293-.968a.36.36,0,0,1,.576.295l-.029,1.6,1.3.919a.36.36,0,0,1-.1.638l-1.538.485-.485,1.538a.36.36,0,0,1-.638.1Z" transform="translate(-365.826 -0.01)" fill="#ec3137"/>
      <path id="Path_113" data-name="Path 113" d="M80.36,448a.36.36,0,0,0-.36.36v2.16a.36.36,0,0,0,.72,0v-2.16A.36.36,0,0,0,80.36,448Z" transform="translate(-76.4 -427.842)" fill="#ec3137"/>
      <path id="Path_114" data-name="Path 114" d="M80.36,336a.36.36,0,0,0-.36.36v2.16a.36.36,0,1,0,.72,0v-2.16A.36.36,0,0,0,80.36,336Z" transform="translate(-76.4 -320.881)" fill="#ec3137"/>
      <circle id="Ellipse_18" data-name="Ellipse 18" cx="0.39" cy="0.39" r="0.39" transform="translate(3.715 18.544)" fill="#ec3137"/>
      <path id="Path_115" data-name="Path 115" d="M114.52,416h-2.16a.36.36,0,1,0,0,.72h2.16a.36.36,0,1,0,0-.72Z" transform="translate(-106.96 -397.282)" fill="#ec3137"/>
      <path id="Path_116" data-name="Path 116" d="M112.614,369.334l.72-.72a.36.36,0,1,0-.509-.509l-.72.72a.36.36,0,0,0,.509.509Z" transform="translate(-106.96 -351.441)" fill="#ec3137"/>
      <path id="Path_117" data-name="Path 117" d="M31.08,369.44a.36.36,0,0,0,.255-.615l-.72-.72a.36.36,0,1,0-.509.509C30.786,369.251,30.826,369.44,31.08,369.44Z" transform="translate(-28.65 -351.441)" fill="#ec3137"/>
      <path id="Path_118" data-name="Path 118" d="M112.614,448.105a.36.36,0,0,0-.509.509l.72.72a.36.36,0,0,0,.509-.509Z" transform="translate(-106.96 -427.842)" fill="#ec3137"/>
      <path id="Path_119" data-name="Path 119" d="M30.837,448.105l-.72.72a.36.36,0,0,0,.255.615c.255,0,.315-.209.974-.825a.36.36,0,1,0-.509-.509Z" transform="translate(-28.662 -427.842)" fill="#ec3137"/>
      <path id="Path_120" data-name="Path 120" d="M2.52,416H.36a.36.36,0,1,0,0,.72H2.52a.36.36,0,1,0,0-.72Z" transform="translate(0 -397.282)" fill="#ec3137"/>
      <path id="Path_121" data-name="Path 121" d="M12.528,2.188c-.643,0-1.253.8-4.919-.014A8.763,8.763,0,0,1,3.46.333,1.081,1.081,0,0,0,1.634.854L.078,7.88c-.733,3.309,4.39,6.75,4.608,6.895a.362.362,0,0,0,.253.056c.259-.039,6.356-1,7.088-4.3L13.583,3.5a1.078,1.078,0,0,0-1.056-1.312ZM6.14,7.177l.72-2.52a.36.36,0,1,1,.692.2l-.72,2.52a.36.36,0,1,1-.692-.2ZM2.325,4.459a.361.361,0,0,1,.24-.365,2.528,2.528,0,0,1,2.092.13A2.543,2.543,0,0,1,5.6,6.093a.361.361,0,0,1-.24.364,2.541,2.541,0,0,1-2.092-.129A2.542,2.542,0,0,1,2.325,4.459Zm5.758,5.563a2.16,2.16,0,1,1-4.218-.934c.162-.608.108-.8.314-.929.226-.144.127-.042,3.786.73a.36.36,0,0,1,.226.158C8.323,9.253,8.194,9.4,8.084,10.022Zm3.353-3.55A2.592,2.592,0,0,1,9.83,7.765a2.47,2.47,0,0,1-1.911-.776.36.36,0,0,1-.062-.424A2.592,2.592,0,0,1,9.463,5.272a2.591,2.591,0,0,1,1.911.776.36.36,0,0,1,.062.424Z" transform="translate(-0.006 -0.009)" fill="#ec3137"/>
    </g>
  </g>
</svg>
