<svg id="Group_7" data-name="Group 7" xmlns="http://www.w3.org/2000/svg" width="84.289" height="28.604" viewBox="0 0 84.289 28.604">
  <path id="Path_85" data-name="Path 85" d="M261.264,259.637l24.815-8.651-12.143-14.623c.931-.977,1.816-1.956,2.771-2.861.168-.159.662-.105.944.006q8.454,3.324,16.891,6.69c3.378,1.343,6.747,2.711,10.14,4.014a2.507,2.507,0,0,0,1.561.029c8-2.628,15.973-5.369,24.006-7.9a9.662,9.662,0,0,1,6.715.34c1.822.777,2.091,1.735,1.036,3.385a11.041,11.041,0,0,1-5.912,4.668c-5.4,1.822-10.79,3.7-16.206,5.484Q298.354,256,280.8,261.707a5.91,5.91,0,0,1-1.61.261,65.723,65.723,0,0,1-16.724-1.644,12.251,12.251,0,0,1-1.211-.4Z" transform="translate(-254.327 -233.401)" fill="#fff"/>
  <path id="Path_86" data-name="Path 86" d="M229.886,308.28a2.147,2.147,0,0,1,.154-.245c1.926-2.017,1.929-2.023,4.415-.831q4.467,2.142,8.924,4.3c.315.152.612.34,1.039.58a5.656,5.656,0,0,1-.656.348c-2.388.835-4.775,1.676-7.175,2.474a1.093,1.093,0,0,1-.94-.123C233.707,312.648,231.811,310.47,229.886,308.28Z" transform="translate(-229.886 -290.272)" fill="#fff"/>
</svg>
