<svg id="graduate-diploma" xmlns="http://www.w3.org/2000/svg" width="62.126" height="77.712" viewBox="0 0 62.126 77.712">
  <g id="Group_369" data-name="Group 369" transform="translate(0)">
    <path id="Path_155" data-name="Path 155" d="M105.167,84.457H124.6a1.822,1.822,0,0,0,0-3.644H105.167a1.822,1.822,0,0,0,0,3.644Z" transform="translate(-92.307 -66.087)" fill="#ec3137"/>
    <path id="Path_156" data-name="Path 156" d="M105.167,133.79H131.65a1.822,1.822,0,0,0,0-3.644H105.167a1.822,1.822,0,0,0,0,3.644Z" transform="translate(-92.307 -106.431)" fill="#ec3137"/>
    <path id="Path_157" data-name="Path 157" d="M48.236,5.467h41.27V34.033a8.7,8.7,0,0,1,1.842.8,7.042,7.042,0,0,1,3.479-1.041c.049,0,.1,0,.146.005V5.467A5.467,5.467,0,0,0,89.505,0H48.236a5.467,5.467,0,0,0-5.467,5.467V66.381a5.467,5.467,0,0,0,5.467,5.467h33.1V66.381h-33.1Z" transform="translate(-42.769)" fill="#ec3137"/>
    <path id="Path_158" data-name="Path 158" d="M265.505,215.581a3.612,3.612,0,0,1-.97-1.085,3.652,3.652,0,0,1,.142-1.518,2.5,2.5,0,0,0-2.692-3.686,1.869,1.869,0,0,1-2.22-1.608c-.378-.861-.806-1.837-1.733-2.137a1.743,1.743,0,0,0-.539-.083,4.327,4.327,0,0,0-2.049.778,1.973,1.973,0,0,1-2.86,0,4.327,4.327,0,0,0-2.049-.778,1.745,1.745,0,0,0-.539.083c-.927.3-1.355,1.277-1.733,2.137a1.868,1.868,0,0,1-2.219,1.608,2.5,2.5,0,0,0-2.693,3.686,1.863,1.863,0,0,1-.828,2.6,2.559,2.559,0,0,0,0,4.668,1.863,1.863,0,0,1,.828,2.6,2.5,2.5,0,0,0,2.693,3.686,1.868,1.868,0,0,1,2.22,1.608c.378.861.806,1.836,1.733,2.137a1.742,1.742,0,0,0,.54.083,4.328,4.328,0,0,0,2.049-.778,1.972,1.972,0,0,1,2.86,0,4.329,4.329,0,0,0,2.049.778,1.752,1.752,0,0,0,.54-.083c.926-.3,1.355-1.277,1.732-2.137a1.869,1.869,0,0,1,2.22-1.608,2.5,2.5,0,0,0,2.692-3.686,1.864,1.864,0,0,1,.828-2.6,2.559,2.559,0,0,0,0-4.668Zm-11.491,7.066a4.732,4.732,0,1,1,4.732-4.732A4.732,4.732,0,0,1,254.014,222.647Z" transform="translate(-204.889 -168.024)" fill="#ec3137"/>
    <path id="Path_159" data-name="Path 159" d="M288.249,341.739a3.125,3.125,0,0,1-.968.151,5.521,5.521,0,0,1-2.746-.966c-.21-.122-.537-.312-.733-.4-.2.086-.523.275-.733.4a5.523,5.523,0,0,1-2.745.966h0a3.134,3.134,0,0,1-.968-.151,3.527,3.527,0,0,1-1.917-1.591v14.976a.749.749,0,0,0,1.256.551l5.109-4.7,5.108,4.7a.749.749,0,0,0,1.255-.551V340.141A3.571,3.571,0,0,1,288.249,341.739Z" transform="translate(-234.678 -278.161)" fill="#ec3137"/>
  </g>
</svg>
