<svg id="Group_4" data-name="Group 4" xmlns="http://www.w3.org/2000/svg" width="81.235" height="47.814" viewBox="0 0 81.235 47.814">
  <path id="Path_87" data-name="Path 87" d="M229.516,367.971h-.85c-6.679,0-13.358-.012-20.036.018-.7,0-.949-.205-1.1-.872q-1.052-4.759-2.21-9.494a2.306,2.306,0,0,1,.216-1.823c.382-.67.69-1.381,1.053-2.121-.834-.462-1.6-.9-2.387-1.313a.713.713,0,0,0-.538-.065c-.981.443-1.947.92-2.968,1.41a10.028,10.028,0,0,0,.59,1.246,4.693,4.693,0,0,1,.538,3.581c-.5,2.9-.9,5.822-1.309,8.739-.071.507-.225.707-.773.706q-10.811-.026-21.623-.014c-.163,0-.326-.035-.593-.065,0-.533-.008-1.054,0-1.575.032-1.752.136-3.506.086-5.256a3.173,3.173,0,0,1,1.6-2.91,9.91,9.91,0,0,1,1.706-.861q4.548-1.864,9.113-3.685a32.675,32.675,0,0,1,3.379-1.173,2.407,2.407,0,0,0,1.566-1.125,15.4,15.4,0,0,0,.918-1.68,1.691,1.691,0,0,1,1.707-1.294c-.347-.566-.645-.98-.866-1.432a7.176,7.176,0,0,1-.726-1.781c-.2-1.089-.249-2.205-.369-3.381-1.66-.083-2.033-1.334-2.269-2.623-.195-1.063-.253-2.152-.364-3.23-.017-.164-.059-.38.022-.492,1.066-1.468.319-3,.189-4.511a12.267,12.267,0,0,1,.45-5.356,6.036,6.036,0,0,1,3.6-3.707,17.544,17.544,0,0,1,6.67-1.655,7.721,7.721,0,0,1,5.514,1.964,1.629,1.629,0,0,0,.975.371,2.242,2.242,0,0,1,2.013,1.5,10.222,10.222,0,0,1,.705,5.389c-.078.886-.164,1.772-.246,2.658a5.285,5.285,0,0,0,.522,2.73,6.973,6.973,0,0,1-.449,6.023,1.951,1.951,0,0,1-.891.711,1.873,1.873,0,0,0-1.059,1.585,10.844,10.844,0,0,1-.176,1.74,10.261,10.261,0,0,1-.783,1.792c-.263.527-.576,1.03-.846,1.507.187.167.228.235.267.234a1.77,1.77,0,0,1,1.848,1.427,7.591,7.591,0,0,0,.574,1.108,3.29,3.29,0,0,0,2.079,1.623c2.027.663,4,1.5,5.985,2.285,1.964.771,3.929,1.543,5.881,2.345a13.435,13.435,0,0,1,2.161,1.06,3.034,3.034,0,0,1,1.516,2.782C229.479,363.284,229.516,365.562,229.516,367.971Z" transform="translate(-166.128 -320.175)" fill="#ec3137"/>
  <path id="Path_88" data-name="Path 88" d="M131.507,399.89l.659,2.4c-1.6.628-3.3,1.274-4.986,1.968a18.134,18.134,0,0,0-2.851,1.342,3.815,3.815,0,0,0-1.93,3.543c.074,2.133.018,4.27.018,6.568-1.535-.212-2.85-.354-4.15-.583-1.667-.294-3.32-.667-4.982-.987a1.264,1.264,0,0,1-1.153-1.234c-.037-1.711-.045-3.427.06-5.134a2.344,2.344,0,0,1,1.4-1.964c1.278-.587,2.629-1.016,3.924-1.569a28.786,28.786,0,0,0,3.425-1.634,2.384,2.384,0,0,0,1.191-2.168c-.007-.447-.128-.65-.6-.691-.635-.056-1.262-.241-1.9-.265a2.078,2.078,0,0,1-1.728-1.127,8.9,8.9,0,0,1-1.374-4.405,22.53,22.53,0,0,1,.877-8.9c1.348-3.841,4.205-5.791,8.131-6.351.44-.063.887-.07,1.33-.115a8.021,8.021,0,0,1,8.3,4.28c2.716,4.739,3.643,9.689,1.114,14.871-.495,1.013-1.062,1.751-2.334,1.751A15.526,15.526,0,0,0,131.507,399.89Z" transform="translate(-112.106 -368.363)" fill="#ec3137"/>
  <path id="Path_89" data-name="Path 89" d="M427,391.4c0-1.606.008-3.015-.01-4.423a.858.858,0,0,0-.235-.5,9.048,9.048,0,0,1-1.838-3.693,2.053,2.053,0,0,0-.691-1,3.684,3.684,0,0,1-.8-4.117,1.679,1.679,0,0,0,.2-1.11,17.852,17.852,0,0,1-.436-6.619c.558-3.377,2.389-5.352,5.752-5.957a17.147,17.147,0,0,1,4.708-.057,6.641,6.641,0,0,1,2.16,1.127c.186.1.35.29.544.326,2.7.507,3.923,2.6,4.114,5.35a16.947,16.947,0,0,1-.721,5.762,1.252,1.252,0,0,0,.157,1.224,3.412,3.412,0,0,1-.875,4.12,1.385,1.385,0,0,0-.541.726,9.005,9.005,0,0,1-1.881,3.943.931.931,0,0,0-.191.266,5.385,5.385,0,0,0,2.194,6.142c1.473.768,3.064,1.306,4.563,2.028a29.464,29.464,0,0,1,3.939,2.142,6.825,6.825,0,0,1,2.98,5.627h-16.58c0-1.953-.058-3.866.017-5.774a3.873,3.873,0,0,0-2.063-3.642,21.881,21.881,0,0,0-2.947-1.342C427.968,391.713,427.385,391.535,427,391.4Z" transform="translate(-368.864 -356.19)" fill="#ec3137"/>
</svg>
