<svg id="Group_287" data-name="Group 287" xmlns="http://www.w3.org/2000/svg" width="71.597" height="69.943" viewBox="0 0 71.597 69.943">
  <path id="Path_93" data-name="Path 93" d="M197.2,147.646a17.31,17.31,0,0,1-10.257,15.491c-7.038,3.369-15.4,1.05-20.234-5.417a18.387,18.387,0,0,1,2.668-24.679,16.575,16.575,0,0,1,25,3.97A19.378,19.378,0,0,1,197.2,147.646Z" transform="translate(-142.708 -129.012)" fill="#ec3137"/>
  <path id="Path_94" data-name="Path 94" d="M17.749,352.3c.807-.845,1.455-1.629,2.208-2.293A40.734,40.734,0,0,1,35.283,341.9a6.122,6.122,0,0,1,2.606-.6c.8.151,1.478.963,2.185,1.516,2.192,1.713,4.372,3.44,6.6,5.2l4.938-3.891c1.11-.875,2.208-1.765,3.337-2.615a1.12,1.12,0,0,1,.824-.217,42.709,42.709,0,0,1,17.221,8.4,20.585,20.585,0,0,1,7.365,12c.32,1.654.3,2.19-.143,3a8.873,8.873,0,0,0-6.415-5.165v-6.22c-1.177.086-2.274.135-3.364.25a36.535,36.535,0,0,0-12.4,3.3c-.633.31-1.23.693-1.861,1.009a.9.9,0,0,0-.53.943c.048,5.081.074,10.161.105,15.242,0,.26,0,.519,0,.809H53.6c0-.3,0-.555,0-.815-.027-5.081-.06-10.161-.07-15.242a.957.957,0,0,0-.53-.943,29.963,29.963,0,0,0-10.537-3.751c-2.106-.36-4.247-.508-6.374-.745a7,7,0,0,0-.711,0v20.651a59.138,59.138,0,0,1-14.868-3.826,8.737,8.737,0,1,0-5.574-16.327L8.98,332.591l2.937-.8Z" transform="translate(-8.98 -304.913)" fill="#ec3137"/>
  <path id="Path_95" data-name="Path 95" d="M443.873,568.719a6.515,6.515,0,1,1,.075-13.031,6.7,6.7,0,0,1,6.472,6.641A6.581,6.581,0,0,1,443.873,568.719Z" transform="translate(-380.589 -499.139)" fill="#ec3137"/>
  <path id="Path_96" data-name="Path 96" d="M49.566,513.588a6.418,6.418,0,0,1-6.45,6.428,6.56,6.56,0,0,1-6.492-6.575,6.33,6.33,0,0,1,6.364-6.39A6.5,6.5,0,0,1,49.566,513.588Z" transform="translate(-32.961 -456.949)" fill="#ec3137"/>
</svg>
