<svg id="instagram-sketched_1_" data-name="instagram-sketched (1)" xmlns="http://www.w3.org/2000/svg" width="21.154" height="21.154" viewBox="0 0 21.154 21.154">
  <path id="Path_75" data-name="Path 75" d="M11.274,5.838A5.428,5.428,0,1,0,16.7,11.266a5.427,5.427,0,0,0-5.428-5.428Zm0,8.951A3.523,3.523,0,1,1,14.8,11.266,3.522,3.522,0,0,1,11.274,14.789Z" transform="translate(-0.693 -0.693)" fill="#fff"/>
  <path id="Path_76" data-name="Path 76" d="M14.938.067c-1.946-.091-6.767-.086-8.714,0A6.321,6.321,0,0,0,1.785,1.778C-.249,3.812.011,6.553.011,10.573c0,4.114-.229,6.792,1.774,8.8,2.042,2.041,4.823,1.774,8.8,1.774,4.076,0,5.482,0,6.923-.555,1.959-.761,3.438-2.512,3.583-5.658.092-1.947.086-6.767,0-8.714C20.912,2.5,18.919.25,14.938.067Zm3.081,17.956c-1.334,1.334-3.184,1.215-7.464,1.215-4.407,0-6.174.065-7.464-1.228-1.485-1.478-1.216-3.852-1.216-7.451,0-4.87-.5-8.377,4.388-8.627,1.123-.04,1.453-.053,4.28-.053l.04.026c4.7,0,8.382-.492,8.6,4.395.05,1.115.062,1.45.062,4.272,0,4.356.082,6.134-1.229,7.451Z" transform="translate(0 -0.001)" fill="#fff"/>
  <circle id="Ellipse_8" data-name="Ellipse 8" cx="1.268" cy="1.268" r="1.268" transform="translate(14.955 3.663)" fill="#fff"/>
</svg>
