<svg id="linkedin_2_" data-name="linkedin (2)" xmlns="http://www.w3.org/2000/svg" width="19.526" height="19.526" viewBox="0 0 19.526 19.526">
  <path id="Path_77" data-name="Path 77" d="M21.1,20.938h0V13.776c0-3.5-.754-6.2-4.85-6.2a4.252,4.252,0,0,0-3.83,2.1h-.057V7.9H8.489V20.937h4.044V14.482c0-1.7.322-3.343,2.427-3.343,2.074,0,2.1,1.94,2.1,3.452v6.347Z" transform="translate(-1.582 -1.412)" fill="#fff"/>
  <path id="Path_78" data-name="Path 78" d="M.4,7.977H4.444V21.013H.4Z" transform="translate(-0.074 -1.487)" fill="#fff"/>
  <path id="Path_79" data-name="Path 79" d="M2.345,0A2.356,2.356,0,1,0,4.69,2.345,2.346,2.346,0,0,0,2.345,0Z" fill="#fff"/>
</svg>
