<svg id="mail_4_" data-name="mail (4)" xmlns="http://www.w3.org/2000/svg" width="42.432" height="25.962" viewBox="0 0 42.432 25.962">
  <g id="Group_66" data-name="Group 66" transform="translate(0 0)">
    <g id="Group_65" data-name="Group 65" transform="translate(0 0)">
      <path id="Path_81" data-name="Path 81" d="M7.226,66.106c5.824,4.023,16.042,11.1,19.046,13.309a2.062,2.062,0,0,0,2.567,0c3.006-2.209,13.225-9.288,19.048-13.312a.633.633,0,0,0,.124-1A3.841,3.841,0,0,0,45.236,64H9.877A3.84,3.84,0,0,0,7.1,65.111.633.633,0,0,0,7.226,66.106Z" transform="translate(-6.341 -64)" fill="#fff"/>
      <path id="Path_82" data-name="Path 82" d="M41.919,126.479a1.041,1.041,0,0,0-.943.1c-6.458,4.466-14.7,10.191-17.294,12.1a4.186,4.186,0,0,1-4.935,0c-2.764-2.032-12.02-8.451-17.292-12.1a1.047,1.047,0,0,0-.943-.1.728.728,0,0,0-.513.654v18.136c0,1.591,1.586,2.885,3.536,2.885H38.9c1.95,0,3.536-1.294,3.536-2.885V127.133A.728.728,0,0,0,41.919,126.479Z" transform="translate(0 -122.192)" fill="#fff"/>
    </g>
  </g>
</svg>
