<svg id="Group_449" data-name="Group 449" xmlns="http://www.w3.org/2000/svg" width="90.62" height="62.339" viewBox="0 0 90.62 62.339">
  <path id="Path_150" data-name="Path 150" d="M-45.131,225.992c1.776-.683,3.389-1.305,5-1.924q12.228-4.687,24.46-9.364c.41-.157.608-.346.566-.81-.046-.516-.01-1.039-.01-1.667-.325.113-.574.192-.818.285Q-31.823,218.6-47.72,224.687a1.281,1.281,0,0,1-.827.035c-3.868-1.432-7.727-2.888-11.588-4.34-.058-.022-.11-.057-.255-.133.214-.1.365-.184.524-.244q14.464-5.428,28.929-10.852c5.077-1.9,10.15-3.818,15.235-5.7a1.835,1.835,0,0,1,1.179,0q22.035,8.235,44.055,16.512c.189.071.372.157.7.294l-3.986,1.5-23.4,8.784q-8.7,3.264-17.4,6.508a1.751,1.751,0,0,1-1.124,0c-5.589-2.078-11.166-4.187-16.749-6.283q-6.027-2.263-12.059-4.512C-44.648,226.194-44.8,226.127-45.131,225.992Z" transform="translate(60.39 -203.358)" fill="#ec3137"/>
  <path id="Path_151" data-name="Path 151" d="M90.4,418.944c.752.277,1.415.518,2.076.766q11.879,4.455,23.761,8.9a1.378,1.378,0,0,0,.885.022q8.126-3.009,16.237-6.058c3-1.124,5.99-2.264,8.986-3.394.191-.072.389-.123.665-.21v.74c0,5.28-.011,10.559.015,15.838a1.2,1.2,0,0,1-.673,1.186,49.271,49.271,0,0,1-51.3,0,1.2,1.2,0,0,1-.672-1.19c.025-5.3.017-10.6.018-15.9C90.4,419.439,90.4,419.236,90.4,418.944Z" transform="translate(-71.428 -391.843)" fill="#ec3137"/>
  <path id="Path_152" data-name="Path 152" d="M23.238,571.555c-2.621-1.485-3.2-1.487-6.153-.036a1.239,1.239,0,0,1-.029-.232c.367-5.133.715-10.268,1.126-15.4a11.013,11.013,0,0,1,.643-2.279c.108-.348.339-.466.724-.376a1.907,1.907,0,0,0,.986.031c.666-.226.943.108,1.093.643a12.249,12.249,0,0,1,.554,2.306c.381,4.943.71,9.891,1.054,14.837C23.247,571.194,23.238,571.338,23.238,571.555Z" transform="translate(-7.32 -509.216)" fill="#ec3137"/>
  <path id="Path_153" data-name="Path 153" d="M27.036,508.828a2.462,2.462,0,1,1-2.5-2.431A2.448,2.448,0,0,1,27.036,508.828Z" transform="translate(-11.74 -468.301)" fill="#ec3137"/>
  <path id="Path_154" data-name="Path 154" d="M37.806,404.948H36.46V391.6c.4.148.772.259,1.116.427a.514.514,0,0,1,.221.391C37.808,396.582,37.806,400.742,37.806,404.948Z" transform="translate(-24.285 -367.94)" fill="#ec3137"/>
</svg>
