<svg xmlns="http://www.w3.org/2000/svg" width="17.334" height="18.746" viewBox="0 0 17.334 18.746">
  <path id="Path_167" data-name="Path 167" d="M397.1,447.927h-16.26c-.54-.279-.649-.527-.436-1.109.382-1.047.758-2.1,1.177-3.128a17.412,17.412,0,0,1,3.76-5.75c.381-.386.776-.758,1.173-1.144-.04-.076-.087-.154-.124-.237-.3-.66-.65-1.3-.885-1.984a12.626,12.626,0,0,1-.646-4.7.847.847,0,0,1,.028-.2.687.687,0,0,1,.726-.493.672.672,0,0,1,.616.621,6.457,6.457,0,0,1,.008.75.239.239,0,0,0,.2.283,6.561,6.561,0,0,1,2.148,1.187c.13.108.257.219.38.323a.26.26,0,0,0,.048-.024,7,7,0,0,1,2.578-1.524.205.205,0,0,0,.106-.153c.012-.256,0-.513.009-.769a.685.685,0,0,1,.7-.7.677.677,0,0,1,.679.712,15.131,15.131,0,0,1-.077,2.155,12,12,0,0,1-1.052,3.711l-.522,1.046c.348.335.7.661,1.041,1a17.146,17.146,0,0,1,2.836,3.711,30.929,30.929,0,0,1,2.283,5.454.686.686,0,0,1-.429.916A.435.435,0,0,0,397.1,447.927Z" transform="translate(-380.307 -429.181)" fill="#ec3137"/>
</svg>
