<svg id="phone_5_" data-name="phone (5)" xmlns="http://www.w3.org/2000/svg" width="25.467" height="25.467" viewBox="0 0 25.467 25.467">
  <g id="Group_64" data-name="Group 64">
    <path id="Path_80" data-name="Path 80" d="M23.423,16.716a14.459,14.459,0,0,1-4.541-.723,2.076,2.076,0,0,0-2.019.426L14,18.58a15.825,15.825,0,0,1-7.115-7.113l2.1-2.789A2.058,2.058,0,0,0,9.49,6.592a14.481,14.481,0,0,1-.726-4.548A2.046,2.046,0,0,0,6.72,0H2.044A2.046,2.046,0,0,0,0,2.044,23.45,23.45,0,0,0,23.423,25.467a2.046,2.046,0,0,0,2.044-2.044V18.759A2.046,2.046,0,0,0,23.423,16.716Z" fill="#fff"/>
  </g>
</svg>
