<?xml version="1.0"?>
<svg xmlns="http://www.w3.org/2000/svg" id="Layer_1" enable-background="new 0 0 512 512" height="512px" viewBox="0 0 512 512" width="512px"><g><g><path d="m153.009 251.818 49.386 35.881-18.863 58.056c-2.008 6.18.191 12.951 5.449 16.771 2.629 1.91 5.723 2.865 8.817 2.865s6.188-.955 8.817-2.865l49.385-35.881 49.386 35.881c5.256 3.82 12.377 3.82 17.633 0 5.258-3.82 7.458-10.59 5.449-16.771l-18.863-58.056 49.386-35.881c5.258-3.82 7.458-10.59 5.449-16.771-2.008-6.18-7.768-10.365-14.266-10.365h-61.044l-18.864-58.056c-2.008-6.18-7.767-10.365-14.266-10.365s-12.258 4.184-14.266 10.365l-18.864 58.056h-61.044c-6.499 0-12.258 4.184-14.266 10.365s.192 12.952 5.449 16.771zm80.76 2.865c6.499 0 12.258-4.184 14.266-10.365l7.965-24.515 7.966 24.516c2.008 6.18 7.767 10.365 14.266 10.365h25.776l-20.854 15.151c-5.258 3.82-7.458 10.59-5.449 16.771l7.965 24.515-20.853-15.151c-5.258-3.82-12.376-3.82-17.634 0l-20.854 15.151 7.965-24.515c2.008-6.18-.191-12.951-5.449-16.771l-20.854-15.151h25.778z" data-original="#000000" class="active-path" data-old_color="#000000" fill="#EC3137"/><path d="m499.49 15c0-8.284-6.716-15-15-15h-456.98c-8.284 0-15 6.716-15 15 0 47.219 32.294 87.034 75.954 98.528v383.472c0 5.374 2.875 10.337 7.535 13.011 4.661 2.674 10.396 2.65 15.035-.061l144.966-84.751 144.966 84.75c2.338 1.367 4.953 2.051 7.57 2.051 2.576 0 5.152-.663 7.465-1.989 4.661-2.674 7.535-7.637 7.535-13.011v-383.472c43.661-11.494 75.954-51.309 75.954-98.528zm-105.954 455.855-129.966-75.981c-2.338-1.367-4.954-2.051-7.57-2.051s-5.232.684-7.57 2.051l-129.966 75.981v-353.981h275.072zm4.08-383.981h-283.232c-34.489 0-63.382-24.418-70.3-56.874h423.832c-6.918 32.456-35.811 56.874-70.3 56.874z" data-original="#000000" class="active-path" data-old_color="#000000" fill="#EC3137"/></g></g> </svg>
