<svg id="twitter_2_" data-name="twitter (2)" xmlns="http://www.w3.org/2000/svg" width="23.655" height="19.22" viewBox="0 0 23.655 19.22">
  <g id="Group_53" data-name="Group 53" transform="translate(0 0)">
    <path id="Path_74" data-name="Path 74" d="M23.655,50.275a10.111,10.111,0,0,1-2.794.766,4.822,4.822,0,0,0,2.133-2.68,9.692,9.692,0,0,1-3.075,1.174,4.849,4.849,0,0,0-8.389,3.316,4.994,4.994,0,0,0,.112,1.106,13.727,13.727,0,0,1-10-5.073,4.851,4.851,0,0,0,1.49,6.482,4.789,4.789,0,0,1-2.191-.6v.053a4.872,4.872,0,0,0,3.885,4.765,4.84,4.84,0,0,1-1.271.16,4.288,4.288,0,0,1-.918-.083,4.9,4.9,0,0,0,4.531,3.378A9.744,9.744,0,0,1,1.161,65.11,9.083,9.083,0,0,1,0,65.044,13.653,13.653,0,0,0,7.44,67.22a13.708,13.708,0,0,0,13.8-13.8c0-.214-.007-.421-.018-.627A9.675,9.675,0,0,0,23.655,50.275Z" transform="translate(0 -48)" fill="#fff"/>
  </g>
</svg>
