<svg xmlns="http://www.w3.org/2000/svg" width="84.486" height="84.477" viewBox="0 0 84.486 84.477">
  <g id="Group_320" data-name="Group 320" transform="translate(162 -3370)">
    <g id="diamond" transform="translate(-162 3370)">
      <g id="Group_313" data-name="Group 313" transform="translate(0 14.192)">
        <g id="Group_312" data-name="Group 312">
          <path id="Path_101" data-name="Path 101" d="M84.216,107.406,70.687,86.775a1.65,1.65,0,0,0-1.38-.745H15.244a1.65,1.65,0,0,0-1.378.742L.315,107.341A1.65,1.65,0,0,0,.409,109.4l6.869,7.843a1.65,1.65,0,1,0,2.482-2.174l-4.471-5.106H27.483l11.153,38.076-12.6-14.39a1.65,1.65,0,1,0-2.482,2.174l17.457,19.932a1.649,1.649,0,0,0,2.482,0l18.585-21.226a1.65,1.65,0,0,0-2.483-2.174L45.861,148.034,57.014,109.96H79.2L68.938,121.68a1.65,1.65,0,1,0,2.483,2.174L84.078,109.4A1.65,1.65,0,0,0,84.216,107.406Zm-79.5-.745L15.24,90.684l10.477,15.977ZM18.3,89.33H39.193L28.746,105.26Zm23.95,1.359,10.474,15.972H31.774Zm0,57.942L30.921,109.961H53.575ZM55.777,105.3,45.3,89.33H66.252Zm3.055,1.359L69.307,90.689l10.474,15.972Z" transform="translate(0 -86.03)" fill="#fff"/>
        </g>
      </g>
      <g id="Group_315" data-name="Group 315" transform="translate(5.55 44.588)">
        <g id="Group_314" data-name="Group 314">
          <path id="Path_102" data-name="Path 102" d="M54.024,279.609A7.728,7.728,0,0,1,46.3,271.89a1.65,1.65,0,0,0-3.3,0,7.728,7.728,0,0,1-7.719,7.719,1.65,1.65,0,0,0,0,3.3A7.728,7.728,0,0,1,43,290.628a1.65,1.65,0,1,0,3.3,0,7.728,7.728,0,0,1,7.719-7.719,1.65,1.65,0,0,0,0-3.3Zm-9.369,5.224a11.105,11.105,0,0,0-3.574-3.574,11.1,11.1,0,0,0,3.574-3.574,11.106,11.106,0,0,0,3.574,3.574A11.105,11.105,0,0,0,44.655,284.833Z" transform="translate(-33.636 -270.24)" fill="#fff"/>
        </g>
      </g>
      <g id="Group_317" data-name="Group 317" transform="translate(67.987 0)">
        <g id="Group_316" data-name="Group 316" transform="translate(0)">
          <path id="Path_103" data-name="Path 103" d="M426.86,6.627a4.956,4.956,0,0,1-4.95-4.95,1.65,1.65,0,0,0-3.3,0,4.956,4.956,0,0,1-4.95,4.95,1.65,1.65,0,1,0,0,3.3,4.956,4.956,0,0,1,4.95,4.95,1.65,1.65,0,0,0,3.3,0,4.956,4.956,0,0,1,4.95-4.95,1.65,1.65,0,1,0,0-3.3Zm-6.6,3.305A8.323,8.323,0,0,0,418.6,8.277a8.323,8.323,0,0,0,1.655-1.655,8.321,8.321,0,0,0,1.655,1.655A8.312,8.312,0,0,0,420.26,9.932Z" transform="translate(-412.01 -0.027)" fill="#fff"/>
        </g>
      </g>
      <g id="Group_319" data-name="Group 319" transform="translate(63.648 54.852)">
        <g id="Group_318" data-name="Group 318" transform="translate(0)">
          <path id="Path_104" data-name="Path 104" d="M388.532,332.924a1.648,1.648,0,1,0,.484,1.166A1.655,1.655,0,0,0,388.532,332.924Z" transform="translate(-385.716 -332.441)" fill="#fff"/>
        </g>
      </g>
    </g>
  </g>
</svg>
